<svg width="319" height="9" viewBox="0 0 319 9" fill="none" xmlns="http://www.w3.org/2000/svg">
<path d="M197.385 0.842607C210.337 0.828586 224.495 0.697871 237.461 0.824226C239.024 0.839691 238.951 1.10845 239.395 1.14268C240.631 1.237 241.366 0.917821 242.254 0.938256C246.558 1.03644 250.632 1.06577 254.88 1.14579C259.236 1.22717 257.202 2.07292 258.722 2.26779C261.685 2.64837 259.164 1.57463 260.321 1.32305C262.451 1.35203 264.794 1.39988 266.914 1.45541C268.165 1.48519 269.386 1.51697 270.575 1.54851C269.757 1.6576 268.925 1.76432 268.069 1.8656C269.584 1.87557 271.678 2.02468 269.209 2.33111C269.761 2.40475 270.271 2.4919 270.827 2.56336C270.945 2.16598 273.627 2.10828 273.86 1.87047C274.101 1.6329 272.607 1.70191 272.612 1.68123C272.738 1.38868 278.789 1.72333 279.228 1.7487C280.366 1.82143 279.379 2.32549 280.338 2.28168C282.038 2.20531 280.918 1.22026 283.221 2.51827C284.128 2.07326 284.146 2.2975 285.354 2.30918C285.509 2.31054 285.385 2.06228 285.453 2.0547C287.217 1.8416 285.868 2.32783 285.877 2.35288C286.053 2.77847 287.909 2.55826 288.28 2.59275C293.24 3.01796 296.91 3.29126 302.141 3.26005C303.248 3.25525 306.708 2.96602 307.797 2.9929C308.88 3.02157 308.314 3.35286 308.868 3.47821C309.768 2.69657 310.607 2.58279 312.658 2.96069C313.362 2.37781 313.319 2.82214 314.736 2.61887C315.325 2.53298 316.136 2.28791 316.933 2.10324C317.359 2.00763 317.731 1.93323 318.107 1.89165C318.268 1.87502 318.46 1.8603 318.565 1.86883C318.512 2.01505 318.988 1.4103 318.077 2.44536C317.627 3.37556 318.72 4.03688 318.622 3.9197C318.741 3.96326 318.78 3.95814 318.804 3.95673C318.854 3.95072 318.855 3.93247 318.862 3.91593C318.855 3.91659 318.855 3.92068 318.8 3.9103C318.778 3.9043 318.717 3.89789 318.583 3.82737C318.433 3.97646 317.752 2.62163 318.276 2.2841C318.889 1.75627 318.59 2.06749 318.617 2.00999C318.555 2.03012 318.438 2.06086 318.347 2.08716C318.154 2.14197 317.98 2.19983 317.827 2.26048C317.485 2.3852 317.132 2.53519 316.281 2.69063C315.765 2.82454 309.801 3.15816 310.279 3.67681C310.497 3.95725 312.461 3.59332 312.563 3.63889C313.025 3.92343 311.949 4.36584 310.952 4.27962C311.202 4.20497 311.495 4.12694 311.746 4.05145C309.486 3.77447 311.136 5.1848 309.382 3.96265C309.166 3.81235 309.222 3.64362 308.887 3.48816C308.824 3.56097 309.226 3.7179 308.887 3.76331C308.544 3.80927 307.835 3.50743 307.738 3.7893C307.614 4.19915 309.081 3.9805 309.209 3.99797C309.21 3.99547 309.211 3.99298 309.212 3.99049C310.245 4.16101 308.138 4.2755 308.043 4.31627C307.402 4.59343 307.818 4.77174 306.876 5.01535C306.353 5.15392 304.875 5.13508 304.387 5.18875C303.871 5.2447 304.681 5.40974 304.335 5.46205C303.989 5.51436 303.542 5.38315 303.114 5.44384C302.927 5.47053 302.955 5.68302 302.87 5.69304C301.986 5.80153 302.561 5.34081 301.739 5.39173C301.187 5.42604 299.409 5.88739 300.632 5.9776C300.052 6.03636 299.488 6.08261 298.886 6.13145C299.267 6.18527 299.652 6.21838 300.011 6.28349C298.919 6.21072 298.373 6.58909 297.682 6.63302C297.005 6.67635 296.372 6.25298 295.588 6.48406C293.936 6.97545 298.006 6.67455 298.532 6.74063C298.738 6.76746 297.959 7.12992 297.847 7.14236C297.351 7.19733 296.74 6.96621 296.339 6.98635C294.86 7.06089 294.066 7.40139 292.674 7.49454C288.031 7.80985 282.27 8.07352 277.902 8.1948C276.21 8.24068 275.288 7.8862 274.548 7.90425C272.848 7.94604 272.559 8.26597 271.11 8.29638C269.918 8.32168 268.422 8.25812 266.968 8.18761C265.837 8.12875 264.738 8.06525 263.891 8.04418C262.594 8.0123 261.396 8.327 261.084 8.33647C256.456 8.47659 250.731 8.49632 246.922 8.51427C245.095 8.52308 244.216 8.18094 243.856 8.19232C242.263 8.24057 242.692 8.53412 241.388 8.50842C240.682 8.49475 240.548 8.21196 240.453 8.20119C239.616 8.11033 239.449 8.48056 238.792 8.49453C235.105 8.57467 231.466 8.34042 227.795 8.31097C227.526 8.3086 227.55 8.14476 227.375 8.15344C226.626 8.19483 226.975 8.45225 226.189 8.47217C224.554 8.51473 222.929 8.4742 221.201 8.44339C221.03 8.44035 220.954 8.22987 220.563 8.23019C220.171 8.23059 219.874 8.4305 219.257 8.41993C217.651 8.39247 216.101 8.15486 214.401 8.14275C214.12 8.14104 213.772 8.39489 213.35 8.39232C212.014 8.3846 210.084 8.15494 208.955 8.14673C205.217 8.12131 201.805 8.26509 198.276 8.26542C197.442 8.26493 196.723 8.02954 196.294 8.02371C195.33 8.0111 196.058 8.23359 195.08 8.23394C187.068 8.2346 179.04 8.12375 170.942 8.12779C167.756 8.12897 163.891 8.35143 160.815 8.28161C159.537 8.25189 159.306 7.94436 158.402 7.93963C156.789 7.93253 156.496 8.32549 154.796 8.36091C153.442 8.38865 151.883 7.99208 150.471 8.01296C149.058 8.03383 148.406 8.41392 146.787 8.45561C145.455 8.48958 143.58 8.31157 142.128 8.33573C128.813 8.55818 115.656 8.67308 102.269 8.32706C97.5112 8.20476 92.2963 8.24042 87.3857 7.84665C86.9257 7.8094 87.6288 7.44349 86.1565 7.51532C85.357 7.55427 84.3004 7.86785 82.4419 7.87659C73.5898 7.91846 64.2147 7.44452 55.1558 7.3153C52.9761 7.28534 51.0483 7.27435 48.9089 7.29066C32.3619 7.42689 15.1709 9.97668 0.844499 6.08837C0.151354 5.89929 0.526246 4.97561 0.944821 4.71406C1.33834 4.90249 1.69644 5.12642 2.10274 5.33955C2.63033 4.18729 2.5388 4.48731 4.44419 4.59792C5.6518 4.66676 4.69404 4.1696 5.31167 4.03183C6.12568 3.85379 9.94909 3.29856 9.21658 4.06003C9.4596 3.92847 9.69499 3.80244 9.91015 3.67357C12.6613 3.5686 15.369 3.38799 18.0734 3.17947C18.5451 3.14301 18.5678 2.90328 19.0691 2.86703C20.3098 2.7675 21.4413 2.92957 22.7156 2.91042C23.4375 2.90025 23.5512 2.62358 24.5187 2.64519C25.4441 2.66675 25.4133 3.04073 26.7341 2.63944C25.9042 2.1667 29.6413 2.52233 31.0065 2.49893C31.1908 2.49594 32.7713 2.08061 33.6542 2.13265C34.5144 2.18371 35.7493 2.45809 37.1093 2.31067C37.76 2.24145 38.0962 1.91439 38.7578 1.89839C39.2193 1.88719 39.7788 2.18137 40.3801 2.19597C40.9903 2.21057 42.2758 1.97615 42.4972 1.9731C43.3325 1.96062 42.4093 2.16211 42.9818 2.17477C45.8059 2.23287 49.0613 2.35606 51.8005 2.2291C52.1364 2.21372 51.6728 1.97003 51.7175 1.96216C54.0098 1.67478 52.7883 1.98487 53.4101 2.2039C53.6271 2.27957 54.3356 2.31595 55.1761 2.31236C56.5938 2.30551 58.4373 2.1693 58.4611 1.89922C58.5943 2.42614 59.5919 2.02816 59.8543 2.01377C60.868 1.95821 60.6425 2.41272 61.597 2.27572C61.9455 2.22583 61.2688 1.91527 61.6429 1.92581C62.5689 1.95195 63.4075 2.44987 64.6736 2.50448C64.9799 2.51784 65.0799 2.29796 65.628 2.30764C66.1525 2.31734 68.3744 2.59575 67.3495 2.12706C68.7021 2.50478 68.976 2.30155 70.5829 2.31823C70.993 2.323 71.5155 2.68007 72.3528 2.57333C72.6383 2.53711 72.6309 2.1949 73.062 2.19382C74.0489 2.19036 74.9843 2.54828 76.2627 2.5673C78.6437 2.60371 81.105 2.36429 83.6119 2.46257C84.2715 2.48943 84.1042 2.83282 85.0686 2.84315C85.2098 2.8437 86.3767 2.55064 87.0516 2.58117C87.4522 2.5995 89.5767 2.81659 89.9963 2.83495C90.6865 2.86447 90.812 2.53221 91.1915 2.5987C92.2912 2.79037 91.4046 3.27684 92.7359 2.61176C93.1717 2.9848 93.9527 2.95052 94.202 3.40869C94.6594 2.90929 95.2491 3.3929 96.1399 3.2283C97.019 3.06353 97.7313 2.09558 97.9409 3.14061C98.3479 3.01517 100.096 2.80486 100.393 2.79005C101.266 2.74842 100.798 3.0356 101.458 2.99893C101.575 2.99282 101.453 2.79487 102.201 2.817C102.715 2.83192 106.234 2.85636 106.458 2.88417C108.889 3.20181 105.13 3.07548 104.612 3.28741C104.52 3.23094 104.429 3.17429 104.331 3.11846C103.265 3.02145 103.87 3.46981 104.353 3.57508C104.836 3.68033 105.743 3.4847 106.147 3.63261C106.349 3.70687 106.221 4.24143 105.613 4.17471C106.264 4.34176 105.374 4.51266 105.631 4.66843C105.91 4.83919 108.85 4.90159 108.87 4.60685C108.318 4.5947 107.634 4.60252 107.079 4.58848C106.352 4.07363 108.575 2.3317 110.589 3.03748C112.042 3.54815 109.637 3.94226 113.089 3.52929C112.558 3.50698 112.109 3.45763 111.627 3.43455C111.577 3.05016 112.357 3.47525 112.762 3.35437C112.956 3.29525 111.762 3.01919 112.8 2.93212C113.691 3.48454 114.381 2.93416 115.889 2.93258C115.47 3.02919 115.05 3.1253 114.632 3.2219C117.174 3.62875 111.264 3.74072 116.213 3.98003C115.616 3.99579 115.023 3.98913 114.425 4.0142C114.714 4.21676 114.249 4.80704 114.508 4.93293C115.186 5.26338 116.198 5.06886 117.03 5.10038C117.389 5.11368 117.165 5.27274 117.196 5.27378C117.688 5.29308 117.58 5.05851 118.013 5.04497C118.557 5.02809 120.134 5.26084 120.391 5.2357C121.054 5.17155 119.951 4.70584 120.016 4.67151C120.438 4.44899 121.303 4.63738 121.258 4.3444C119.175 4.53942 113.21 4.26124 118.614 3.79446C117.13 3.31653 117.557 2.66566 119.7 2.62117C121.476 2.5839 120.329 2.84161 121.254 3.13197C121.372 3.16834 123.761 3.31325 123.886 3.11042C123.79 3.57811 124.562 3.99492 124.042 4.47615C123.965 4.54684 122.983 4.5158 123.324 4.90508C123.495 5.10062 123.986 5.52657 123.906 5.77457C124.11 5.60258 124.317 5.40903 124.52 5.22959C125.977 5.18368 126.185 5.37025 126.983 5.69463C126.947 5.56014 126.21 4.99323 127.331 5.16834C127.388 5.17877 127.437 5.38159 128.008 5.48385C129.161 5.68885 129.403 5.75224 128.514 6.34475C130.909 6.0124 131.425 6.67724 133.867 6.49028C133.38 5.72378 132.533 5.91083 130.281 6.05165C130.184 5.8694 130.138 5.68916 130.038 5.50503C133.033 5.92625 131.547 5.87988 133.238 5.51533C133.65 5.426 135.856 5.52911 135.121 5.01189C134.947 4.8902 133.578 4.90026 133.736 4.70962C133.766 4.67333 135.432 4.58548 135.579 4.63525C137.423 5.24975 134.123 5.66539 139.209 5.4573C139.349 5.45115 139.398 5.22855 139.671 5.1983C140.184 5.14183 140.19 5.39988 140.648 5.34155C141.107 5.28306 141.744 4.93771 142.434 5.26034C143.695 5.84784 140.714 6.17603 139.394 5.86259C138.846 6.62473 148.335 6.66621 148.916 6.60197C151.481 6.32362 147.214 6.47754 146.996 6.2652C146.905 6.17539 146.954 5.03998 145.874 5.7741C145.554 5.99164 146.886 6.28272 146.091 6.40111C145.293 6.51948 145.609 6.18592 145.552 6.16244C145.353 6.08198 144.503 6.20377 144.393 6.15607C142.701 5.43218 142.858 4.34539 145.101 5.95719C146.081 5.59667 143.835 5.01233 145.052 4.76907C146.535 4.47342 147.602 4.99386 147.789 5.01765C150.01 5.29921 147.449 4.53707 150.164 4.78515C151.677 4.92315 147.899 5.28281 151.354 5.2416C154.248 5.20639 152.686 4.93958 152.898 4.34189C152.948 4.20205 154.534 4.0341 152.374 4.09067C152.313 4.24634 152.197 4.45143 152.06 4.59482C151.53 4.47982 150.65 3.69786 150.369 3.66991C148.997 3.53691 149.063 3.94184 148.255 3.46312C148.831 3.98608 147.892 3.66951 147.54 3.77874C146.229 4.1813 147.95 4.33653 145.006 3.80752C145.389 4.053 145.738 4.29385 146.108 4.53835C145.756 4.54586 145.4 4.55356 145.047 4.56105C144.52 4.02127 142.643 4.08527 144.345 3.54752C142.3 3.3883 141.477 3.50345 141.029 3.92117C140.944 4.00091 140.637 4.03206 140.278 4.03879C140.345 4.15676 140.431 4.52093 140.375 4.56542C139.866 4.95659 139.083 4.27634 139.351 4.01822C139.1 4.00515 138.901 3.99008 138.831 3.9836C138.386 3.94219 139.259 3.71051 138.899 3.62929C138.783 3.60291 137.517 3.65036 137.494 3.55513C137.344 2.94467 139.416 3.3906 135.252 3.02446C135.15 3.57944 137.084 3.46276 136.586 4.05115C136.05 4.68326 134.966 3.8303 134.727 4.60697C134.639 4.47891 134.6 4.37222 134.525 4.22651C132.843 4.56042 132.824 3.91291 132.312 3.7685C131.328 3.48667 126.71 3.51488 130.847 4.08797C130.241 4.14218 129.624 4.16625 129.023 4.21393C128.89 3.05286 129.249 3.51597 126.366 3.32995C125.732 3.28883 125.528 2.77773 124.905 3.38212C124.994 2.78767 123.111 3.14114 122.932 3.06839C121.808 2.59553 125.992 1.95515 126.519 3.00815C127.225 2.60091 127.221 3.14207 128.009 3.0727C129.148 2.97253 129.307 2.86761 130.662 3.27101C131.996 2.71226 125.445 3.00792 129.417 2.27319C133.377 1.54025 156.46 1.18345 161.84 1.08005C171.588 0.896801 176.723 0.772444 185.48 0.816038C186.348 0.820054 192.859 0.771786 191.507 1.42084C191.31 1.51404 188.501 1.75894 190.91 2.27144C190.419 1.96965 191.84 1.77511 191.959 1.74346C194.685 1.025 193.116 0.847731 197.385 0.842607ZM210.101 6.64402C204.513 6.49667 208.619 6.93067 207.458 7.91257C208.177 7.9153 208.892 7.91789 209.608 7.92052C209.42 7.85897 209.234 7.79762 209.046 7.73607C209.045 7.73607 209.044 7.73607 209.044 7.73607C209.396 7.37211 209.75 7.00801 210.101 6.64402ZM301.639 6.57525C301.422 6.71075 301.205 6.84641 300.964 6.97962C300.196 6.9607 299.516 6.93917 298.751 6.91831C298.839 6.82837 298.923 6.73746 299.01 6.64752C299.894 6.62872 300.726 6.61053 301.639 6.57525ZM138.613 6.00256C137.564 5.64045 137.656 6.28178 136.264 5.98581C136.433 6.45937 136.621 6.92269 136.8 7.39161C137.859 7.32455 138.109 7.14533 139.253 7.26407C139.12 7.11166 138.984 6.95832 138.854 6.80498C138.663 6.83708 138.459 6.87363 138.272 6.90202C137.98 6.47574 139.814 6.41725 138.617 6.00159C138.616 6.00191 138.615 6.00223 138.613 6.00256ZM127.878 6.16218C127.314 6.09891 125.09 5.86059 124.788 6.05561C123.756 6.71694 130.033 6.31437 125.406 6.89101C125.427 6.9843 125.405 7.07558 125.405 7.16787C126.247 7.20311 127.089 7.23379 127.941 7.26248C127.897 6.89471 127.928 6.53183 127.878 6.16218ZM189.855 6.67827C188.997 6.62644 184.872 6.93472 186.216 7.35689C186.612 7.48051 188.452 6.88039 189.149 6.90713C189.601 6.92438 189.095 7.25399 189.986 7.13346C189.947 6.98795 189.922 6.82664 189.853 6.67924C189.854 6.67892 189.854 6.67859 189.855 6.67827ZM191.483 4.75921C190.582 4.81729 189.679 4.891 188.781 4.95268C189.436 5.32931 190.725 5.08888 190.804 5.61804C190.556 5.65795 190.31 5.69763 190.066 5.73753C189.878 5.62168 189.693 5.50572 189.508 5.38987C188.738 5.6766 189.205 5.81985 187.769 5.73541C188.639 6.53599 188.789 6.96549 191.262 6.15846C190.793 6.59199 191.234 8.00627 192.604 6.9969C192.86 6.80952 191.79 6.68338 191.778 6.6535C191.613 6.28208 192.208 6.04559 192.031 5.69471C191.952 5.536 191.299 5.5379 191.201 5.31758C191.156 5.21012 191.778 4.90408 191.483 4.75921ZM193.268 6.64338C192.991 6.86807 193.938 7.40244 194.759 7.29477C196.038 7.12758 194.022 6.61874 193.268 6.64338ZM301.644 6.57462C301.642 6.57483 301.641 6.57504 301.639 6.57525C301.64 6.57474 301.641 6.57423 301.642 6.57372C301.642 6.57402 301.643 6.57432 301.644 6.57462ZM130.787 6.43107C130.12 6.6203 129.136 6.58952 129.208 6.8937C128.884 6.83301 128.558 6.77326 128.235 6.71257C128.238 6.80397 128.244 6.89558 128.247 6.98605C129.218 7.04587 130.189 7.10585 131.164 7.16656C131.043 6.92172 130.93 6.67597 130.787 6.43107ZM120.205 6.1858C118.987 6.15116 120.007 6.568 119.739 6.76684C119.471 6.9657 118.388 6.79975 118.515 7.08665C119.23 7.10015 119.977 7.11379 120.705 7.12636C120.514 6.81407 120.381 6.49619 120.203 6.1858C120.204 6.1858 120.204 6.1858 120.205 6.1858ZM232.939 6.94387C232.105 6.85601 232.43 6.53984 230.816 6.91253C230.818 6.91252 230.819 6.91252 230.82 6.91252C232.335 7.16809 234.407 7.39396 236.102 7.13973C235.056 6.80937 234.255 7.08101 232.939 6.94387ZM141.499 6.94148C141.848 6.69235 140.223 6.47918 139.865 6.71055C139.284 7.08504 140.965 7.31988 141.499 6.94148ZM266.357 4.58005C267.573 3.80058 265.274 2.95519 262.731 3.34553C262.514 3.37973 264.146 3.61325 263.665 3.76684C263.617 3.782 262.721 3.76984 262.497 3.87838C262.274 3.98719 262.511 4.23472 262.145 4.34168C261.494 4.52873 260.12 4.19891 259.643 4.44154C259.582 4.47407 260.46 4.80183 260.513 4.81412C261.402 5.01013 262.275 4.56882 262.423 4.56492C263.158 4.54504 263.048 4.88717 263.234 4.96616C263.584 5.1147 264.191 4.95949 264.233 4.97037C265.332 5.26196 262.824 5.19417 262.472 5.3195C261.549 5.65779 262.386 5.96142 260.239 6.16254C260.035 6.18148 257.57 6.17644 260.674 6.53971C254.573 7.37354 263.74 6.9749 264.775 6.78975C265.234 6.70506 264.536 6.38473 264.814 6.23623C265.449 5.89667 266.516 5.82937 266.416 5.35794C266.205 4.36689 264.804 5.02802 263.807 4.86793C263.91 4.65163 263.948 4.44111 264.139 4.22884C263.851 4.51474 266.276 4.63883 266.357 4.58201C266.357 4.58136 266.357 4.58071 266.357 4.58005ZM250.821 5.80631C249.446 5.51274 249.559 6.13891 248.3 5.78569C247.193 6.35283 249.38 6.30628 249.629 6.33686C250.774 6.47379 250.768 7.08569 251.975 6.89193C251.558 6.53182 251.216 6.16753 250.821 5.80631ZM262.83 5.99825C261.894 6.32188 263.573 6.30512 263.637 6.36525C264.385 7.00402 259.365 6.91241 262.83 5.99825ZM184.491 5.41213C184.021 5.39014 184.319 5.69427 183.905 5.78353C183.488 5.87355 182.076 5.61186 182.111 5.80092C182.146 5.99042 184.735 6.48482 182.137 6.58807C182.225 6.69451 182.195 6.77379 182.237 6.86993C182.948 6.8736 183.675 6.87912 184.391 6.88273C183.998 6.57623 183.595 6.25378 183.217 5.95753C183.62 5.71445 183.846 6.02712 183.868 6.02714C183.868 6.02682 183.868 6.02649 183.868 6.02617C184.618 6.00253 185.545 5.46104 184.491 5.41213ZM221.376 6.37044C221.516 5.60973 220.408 6.46033 219.951 6.55501C219.495 6.64938 218.865 6.36838 219.102 6.69546C219.844 6.92064 221.361 6.45535 221.376 6.36946C221.376 6.36979 221.376 6.37011 221.376 6.37044ZM243.345 5.8366C242.2 6.02497 242.384 6.22215 240.968 6.00089C241.024 6.18457 241.079 6.37225 241.135 6.55313C242.258 6.55339 242.179 6.01998 243.467 6.23024C243.677 6.26498 243.229 6.6928 244.177 6.55254C243.9 6.32598 243.62 6.0744 243.345 5.8366ZM237.614 6.53529C238.921 6.50373 239.983 5.01319 237.548 5.69073C237.19 5.79195 236.627 6.55932 237.614 6.53529ZM196.726 5.38477C194.478 5.34064 197.031 5.58215 197.616 5.811C192.387 5.99103 198.194 5.74886 198.739 6.50926C199.384 6.29302 200.589 5.79831 199.25 5.66523C198.691 5.60994 198.895 5.83643 198.862 5.83548C197.833 5.77903 197.949 5.40872 196.726 5.38477ZM253.242 5.75851C253.157 5.77011 253.292 6.02628 253.02 6.07891C252.749 6.13117 252.129 5.95433 252.068 6.1122C252.008 6.27108 253.249 6.38823 253.624 6.27082C254 6.15232 254.012 5.65589 253.242 5.75851ZM244.549 5.16159C243.435 5.35025 245.27 6.28998 245.528 6.28458C247.708 6.2271 244.487 5.46149 244.549 5.16159ZM201.974 3.77984C199.254 4.25968 201.246 5.09546 202.944 5.59597C203.168 5.49434 203.398 5.39257 203.619 5.29187C202.601 5.90947 200.818 6.5199 204.785 5.98194C202.615 5.83634 204.432 5.67056 204.445 5.63572C204.686 4.50102 201.467 5.02747 201.976 3.77984C201.975 3.77984 201.974 3.77984 201.974 3.77984ZM256.892 6.01021C258.111 6 261.162 5.78522 259.733 5.29941C258.797 5.5365 257.852 5.77354 256.892 6.01021ZM157.435 3.78859C156.468 3.50373 155.576 3.50658 154.384 3.52254C155.456 3.93648 154.751 3.98216 154.389 4.08212C153.84 4.23259 155.169 4.22317 155.173 4.25089C155.148 4.64181 154.299 4.70065 156.23 4.69563C155.753 4.83077 155.281 4.96695 154.804 5.10114C156.275 5.1222 156.621 5.37803 157.555 5.6917C156.65 4.92826 157.842 5.40764 158.927 5.03106C159.468 4.84252 157.926 3.93429 157.431 3.78859C157.432 3.78859 157.433 3.78859 157.435 3.78859ZM199.16 3.62612C198.879 3.76318 198.621 3.94863 198.349 4.10528C198.053 4.12008 197.753 4.13304 197.459 4.14783C197.422 4.02654 197.392 3.89966 197.35 3.78303C196.963 3.74754 197.114 3.91647 196.999 3.93227C196.999 3.93162 196.999 3.93097 196.999 3.93032C195.349 4.15331 194.67 4.12769 193.371 3.75184C193.371 4.12342 193.371 4.49501 193.371 4.86659C193.663 4.83136 193.958 4.797 194.25 4.76269C194.405 4.56313 194.561 4.36344 194.716 4.16387C195.053 4.2742 195.387 4.38376 195.723 4.49407C195.993 4.42243 196.317 4.34706 196.55 4.27725C197.892 5.31657 194.842 4.60934 194.812 5.0404C194.799 5.3176 197.859 5.30718 198.318 5.11601C198.382 5.08804 197.712 4.31437 198.846 4.71779C199.023 4.78132 199.086 6.45455 200.306 5.10017C200.48 4.90803 199.874 3.8684 199.16 3.62612ZM187.959 3.07885C189.693 4.15099 183.293 3.01257 186.055 3.89626C185.266 4.38714 185.412 4.3809 186.206 4.8183C186.276 4.8575 185.727 4.99203 185.774 5.00924C186.517 5.25081 187.411 5.12405 187.416 5.56172C187.617 5.53861 187.805 5.51804 188.006 5.49492C187.171 5.08171 188.499 4.80585 189.012 4.45827C189.246 4.30084 188.709 4.25171 188.906 4.11393C188.979 4.06362 189.727 4.16487 189.758 4.02046C189.822 3.69389 189.353 3.25208 188.555 3.01057C188.555 3.01024 188.555 3.00992 188.555 3.00959C188.354 3.03086 188.16 3.05666 187.959 3.07885ZM225.016 3.96456C225.308 4.55579 226.48 4.72355 224.23 5.01592C224.342 5.13231 224.457 5.24772 224.569 5.3641C224.951 5.35333 225.308 5.34263 225.707 5.33272C226.889 3.58801 229.028 5.55148 227.657 4.31752C227.507 4.18339 226.592 4.33498 227.495 3.96866C227.493 3.96833 227.492 3.96801 227.491 3.96769C226.234 4.08167 226.059 4.29154 225.016 3.96456ZM216.64 4.38593C213.762 5.63297 220.613 5.07741 219.477 4.74784C219.358 4.71817 216.419 4.98807 216.64 4.38593ZM239.831 3.26254C238.522 3.24483 238.433 3.91668 238.567 4.1582C238.701 4.40045 239.609 4.15274 239.726 4.19058C240.107 4.31547 239.299 4.40101 239.795 4.57223C239.962 4.62789 242.225 4.86045 242.325 4.83113C242.895 4.66864 242.058 4.1171 242.221 4.05313C242.754 3.84345 243.475 4.12936 243.627 3.83417C243.956 3.20431 242.617 3.86882 242.388 3.88024C241.7 3.91229 241.759 3.55814 241.241 3.48881C240.723 3.41961 240.384 3.54187 239.924 3.51813C239.771 3.5102 239.898 3.26459 239.831 3.26254ZM235.556 4.69232C236.907 4.18063 233.613 3.63551 233.212 3.75528C232.052 4.11148 234.915 4.93661 235.556 4.69232ZM192.301 4.69784C193.543 4.33019 190.646 4.02966 189.825 4.17726C189.971 4.33058 191.875 4.82443 192.301 4.69784ZM202.726 3.78195C201.591 3.8965 203.097 4.72726 204.04 4.71429C204.593 4.16861 204.073 4.27673 203.456 4.25425C202.839 4.23154 203.611 3.6927 202.726 3.78195ZM253.898 3.81533C253.666 3.80811 249.659 4.2775 251.964 4.45445C252.147 4.46777 254.915 4.37486 255.114 4.28967C255.53 4.11766 254.529 3.8365 253.898 3.81533ZM208.188 2.97594C207.586 3.44812 206.991 3.44182 207.546 3.99605C207.547 3.99605 207.548 3.99605 207.549 3.99605C206.021 4.16593 205.951 3.03191 205.621 3.05618C204.464 3.14124 205.56 3.9484 204.834 4.21338C206.522 3.96431 206.038 4.50849 207.317 4.54294C207.604 4.5504 208.749 4.22525 208.915 4.0227C209.082 3.82007 208.498 3.21294 208.188 2.97594ZM259.487 3.66708C258.155 3.4942 256.919 4.26626 258.786 4.37684C259.692 4.43122 260.297 3.77226 259.487 3.66708ZM125.962 3.463C126.164 3.66423 126.373 3.86463 126.591 4.06404C126.099 4.11105 125.608 4.15906 125.117 4.207C125.505 4.14473 125.894 4.08343 126.285 4.02209C125.363 3.94929 124.943 3.58307 125.959 3.46299C125.96 3.46299 125.961 3.46299 125.962 3.463ZM93.0231 3.19828C92.6096 3.00358 91.7956 3.59873 91.8986 3.64578C92.6718 3.99637 93.5969 3.46825 93.0231 3.19828ZM190.466 2.87946C188.933 2.79445 189.979 3.76798 190.93 3.83542C190.35 3.64894 191.343 2.92778 190.466 2.87946ZM104.612 3.28741C104.749 3.3715 104.887 3.45561 105.041 3.53989C104.557 3.42192 104.474 3.34343 104.612 3.28741ZM253.265 2.95952C253.033 2.88609 251.279 2.83259 251.037 2.92591C250.542 3.12222 251.925 3.65307 252.724 3.48409C252.813 3.46595 253.499 3.03305 253.261 2.95954C253.263 2.95953 253.264 2.95953 253.265 2.95952ZM123.89 3.08406C123.892 3.09338 123.891 3.10226 123.886 3.11042C123.888 3.10175 123.887 3.09277 123.89 3.08406ZM58.4477 1.85474C58.4572 1.86986 58.4622 1.88486 58.4611 1.89922C58.4575 1.8851 58.4501 1.87022 58.4477 1.85474ZM241.012 2.18139C240.431 1.25651 239.086 1.75326 240.15 2.20838C240.209 2.23229 240.872 2.18 241.012 2.18139Z" fill="white"/>
</svg>
