<svg width="1210" height="459" viewBox="0 0 1210 459" fill="none" xmlns="http://www.w3.org/2000/svg">
<path d="M45.0822 338.249C55.4238 336.982 67.7986 335.303 78.4288 332.876C80.6462 332.371 82.7879 331.833 84.8279 331.269C84.9934 331.223 85.1593 331.177 85.3255 331.131C90.1359 329.783 94.9829 328.202 100.81 326.03C101.545 325.755 102.313 325.464 103.082 325.169C109.971 322.523 118.365 318.998 129.735 313.769C132.585 312.458 135.389 311.15 138.157 309.848C172.066 293.747 197.893 279.917 206.431 275.574C224.866 265.982 244.325 255.27 270.689 240.333C273.086 238.974 275.592 237.549 278.097 236.123C279.828 235.137 281.252 234.151 281.601 233.717C281.663 233.638 281.69 233.578 281.677 233.539C281.661 233.493 281.591 233.479 281.475 233.496C280.945 233.575 279.469 234.254 277.795 235.207C275.338 236.606 272.896 237.994 270.548 239.325C270.537 239.331 270.527 239.337 270.516 239.343C243.992 254.373 224.959 264.845 206.982 274.212C198.315 278.625 172.152 292.661 137.763 308.986C134.722 310.416 131.628 311.856 128.476 313.301C117.023 318.549 108.515 322.091 101.614 324.705C100.861 324.99 100.118 325.268 99.403 325.531C99.3862 325.537 99.3695 325.544 99.3527 325.55C93.5095 327.695 88.8855 329.165 84.2946 330.431C84.1971 330.457 84.0997 330.484 84.0025 330.51C82.1434 331.018 80.211 331.5 78.222 331.955C67.4771 334.417 55.093 336.072 44.8853 337.321C42.5681 337.606 40.7334 338.026 40.7845 338.283C40.839 338.539 42.7609 338.535 45.0822 338.249ZM829.808 2.17755C842.187 1.84332 858.62 1.37503 873.156 1.31851C885.228 1.24817 896.382 1.42175 903.404 1.60544C904.908 1.64383 906.197 1.67953 907.293 1.711C913.398 1.89008 920.188 2.29971 928.276 3.12405C930.134 3.31479 932.046 3.52759 934.039 3.76941C940.604 4.56284 947.902 5.67404 955.831 7.18243C957.45 7.48932 959.034 7.80164 960.584 8.11615C981.462 12.2158 996.513 17.8309 1007.57 22.744C1010.52 24.0487 1013.21 25.3104 1015.68 26.5101C1018.25 27.7549 1020.61 28.9506 1022.81 30.0912C1022.81 30.0932 1022.81 30.0951 1022.82 30.097C1031.11 34.4162 1037.12 37.9138 1042.68 41.0971C1051.47 46.1687 1058.67 50.6575 1066.78 55.92C1067.78 56.5676 1068.79 57.2311 1069.82 57.9076C1082.8 66.3779 1100.11 80.0403 1110.77 89.6204C1111.36 90.1439 1111.96 90.6784 1112.56 91.2244C1116.03 94.3419 1119.84 97.8282 1124.19 101.961C1129.55 107.066 1135.71 113.165 1142.79 121.114C1153.46 133.098 1161.76 144.406 1168.57 154.698C1170.52 157.649 1172.33 160.492 1174.03 163.24C1175.78 166.05 1177.41 168.759 1178.95 171.384C1181.26 175.309 1183.3 178.885 1185.28 182.541C1204.65 215.412 1206.19 242.384 1206.25 257.049C1206.35 258.87 1206.45 260.657 1206.55 262.289C1207.2 274.087 1207.58 280.687 1207.87 285.443C1207.95 286.873 1208.02 288.17 1208.08 289.344C1208.6 300.019 1208.81 309.804 1208.9 321.608C1208.92 324.213 1208.94 326.942 1208.95 329.789C1208.95 330.75 1208.95 331.694 1208.95 332.62C1208.91 341.008 1208.2 347.438 1207.41 352.558C1207.02 355.047 1206.61 357.22 1206.19 359.264C1206.18 359.301 1206.17 359.339 1206.17 359.376C1206.11 359.657 1206.05 359.946 1205.99 360.225C1205.95 360.436 1205.9 360.645 1205.85 360.855C1205.83 360.936 1205.82 361.01 1205.8 361.064C1205.79 361.107 1205.78 361.141 1205.78 361.162C1205.78 361.166 1205.78 361.171 1205.77 361.175C1205.68 361.573 1205.6 361.917 1205.58 361.986C1205.55 362.109 1205.53 362.217 1205.52 362.273C1205.45 362.565 1205.37 362.937 1205.32 363.192C1205.18 363.84 1204.93 364.958 1204.54 366.674C1204.18 368.159 1203.82 369.585 1203.36 371.34C1203.33 371.451 1203.3 371.561 1203.27 371.671C1202.83 373.383 1202.29 375.364 1201.67 377.815C1201.11 380.044 1200.86 382.094 1201.06 382.437C1201.25 382.778 1201.79 381.313 1202.33 379.108C1202.9 376.824 1203.39 374.978 1203.84 373.276C1203.87 373.169 1203.9 373.061 1203.93 372.953C1204.4 371.175 1204.84 369.469 1205.29 367.606C1205.44 366.989 1205.59 366.332 1205.73 365.734C1205.99 364.644 1206.28 363.4 1206.61 361.908C1206.67 361.605 1206.74 361.293 1206.81 360.979C1207.25 358.938 1207.73 356.545 1208.17 353.825C1209.07 348.297 1209.86 341.395 1209.89 332.635C1209.9 331.345 1209.9 330.035 1209.9 328.675C1209.89 325.946 1209.87 323.327 1209.85 320.747C1209.75 308.919 1209.52 298.356 1208.95 287.032C1208.87 285.497 1208.78 284 1208.68 282.393C1208.39 277.692 1208.05 272.021 1207.43 261.123C1207.36 259.815 1207.28 258.434 1207.2 257.008C1207.04 243.174 1206.01 215.903 1186.31 182.453C1184.26 178.66 1182.14 174.942 1179.77 170.908C1178.11 168.094 1176.37 165.213 1174.55 162.277C1172.87 159.58 1171.11 156.832 1169.27 154.053C1162.55 143.894 1154.48 132.903 1144.18 121.249C1136.74 112.839 1130.36 106.512 1124.84 101.25C1121.06 97.6614 1117.7 94.562 1114.57 91.7309C1114.31 91.4902 1114.04 91.2484 1113.77 91.0104C1113.44 90.714 1113.12 90.4189 1112.79 90.1261C1101.44 79.8672 1083.03 65.267 1068.61 55.9502C1068.18 55.6706 1067.75 55.3941 1067.33 55.1205C1058.86 49.6391 1051.55 45.0853 1042.16 39.7032C1037.31 36.9431 1032.15 33.9266 1024.02 29.6573C1021.74 28.4633 1019.21 27.1756 1016.38 25.797C1013.81 24.5488 1011.02 23.2358 1007.95 21.8798C996.787 16.9149 981.607 11.2786 960.78 7.18945C959.05 6.83823 957.278 6.48969 955.462 6.14856C947.759 4.69785 940.754 3.63104 934.206 2.83691C932.168 2.58929 930.179 2.36823 928.221 2.16809C920.073 1.3378 912.474 0.868256 905.409 0.689423C904.831 0.675079 904.178 0.658844 903.451 0.641266C897.016 0.479736 885.32 0.286591 872.504 0.373993C858.15 0.445312 842.93 0.888336 832.036 1.14432C830.901 1.16943 829.761 1.19797 828.619 1.22937C821.899 1.41254 815.086 1.70758 808.861 2.00256C805.978 2.13861 803.227 2.27216 800.662 2.38727C774.931 2.5925 734.722 10.2885 699.788 21.5093C685.202 26.0319 671.33 30.8848 659.393 35.3114C658.861 35.5086 658.327 35.707 657.791 35.9066C610.967 53.4998 578.546 69.7693 567.392 75.0359C566.877 75.2856 566.407 75.5136 565.984 75.7193C565.606 75.903 565.264 76.0693 564.962 76.2166C560.429 78.4271 556.417 80.3773 552.261 82.4184C552.032 82.5307 551.804 82.6431 551.575 82.7558C547.139 84.9391 542.526 87.2369 537.102 90.0319C534.002 91.6296 531.092 93.1399 528.155 94.6736C512.061 103.086 498.521 110.398 486.624 116.878C484.019 118.298 481.497 119.678 479.042 121.025C479.034 121.029 479.027 121.033 479.02 121.037C468.227 126.957 458.685 132.261 449.658 137.346C433.21 146.617 422.108 152.902 413.469 157.77C410.76 159.298 408.263 160.707 405.908 162.036C400.816 164.91 396.373 167.423 391.799 170.043C383.208 174.966 375.278 179.474 367.477 183.916C366.781 184.312 366.087 184.708 365.394 185.103C356.932 189.922 348.578 194.692 339.762 199.798C337.717 200.983 336.117 202.155 336.207 202.405C336.296 202.655 338.035 201.892 340.082 200.706C348.64 195.749 356.793 191.093 365.252 186.275C365.948 185.878 366.649 185.48 367.351 185.08C375.135 180.648 383.203 176.058 391.955 171.044C396.366 168.516 400.558 166.145 405.551 163.326C407.932 161.982 410.499 160.535 413.354 158.924C422.122 153.981 433.368 147.615 449.972 138.255C458.888 133.232 468.304 127.996 479.087 122.079C481.561 120.722 484.098 119.334 486.737 117.895C498.702 111.376 512.348 104.004 528.594 95.5121C531.491 93.9987 534.365 92.5068 537.418 90.9329C542.542 88.2922 546.922 86.1069 551.319 83.94C551.567 83.8177 551.814 83.6956 552.061 83.5738C556.19 81.5432 560.413 79.4886 565.192 77.1567C565.832 76.8448 566.646 76.4476 567.621 75.9747C578.783 70.7034 611.309 54.3727 658.253 36.7436C658.399 36.6889 658.545 36.6344 658.691 36.5799C675.963 30.1651 689.345 25.834 700.106 22.5526C708.973 19.8576 716.096 17.8945 722.345 16.3246C733.282 13.5842 741.532 11.7184 748.303 10.2712C749.603 9.99399 750.812 9.74185 751.989 9.49966C757.038 8.46359 761.042 7.71323 765.061 7.05844C777.221 5.10556 786.03 4.23544 796.68 3.65454C800.499 3.45306 804.673 3.22073 808.949 3.0047C814.786 2.70807 820.816 2.44577 826.39 2.27429C826.404 2.27383 826.419 2.27338 826.433 2.27292C827.578 2.23758 828.707 2.20551 829.808 2.17755ZM1191.99 410.974C1191.49 412.279 1191.13 413.44 1190.98 414.18C1190.84 414.782 1190.79 415.149 1190.9 415.18C1190.99 415.208 1191.22 414.915 1191.5 414.376C1191.88 413.704 1192.39 412.569 1192.9 411.235C1194.93 406.009 1197.03 400.364 1198.46 394.544C1199.08 392.097 1199.25 390.077 1198.99 390.05C1198.73 390.022 1198.14 391.983 1197.52 394.4C1196.1 400.163 1194.01 405.748 1191.99 410.974ZM820.246 7.47159C822.542 7.36624 824.819 7.06128 825.325 6.77469C825.829 6.48901 824.372 6.32318 822.072 6.42081C820.856 6.47278 818.856 6.55563 816.167 6.68927C814.227 6.78583 811.927 6.90942 809.303 7.07202C788.262 8.09879 745.969 13.0728 701.353 26.6494C695.988 28.2235 690.583 29.8791 685.172 31.6141C680.459 33.1258 676.241 34.5237 672.223 35.8882C655.138 41.8082 641.143 46.0489 609.379 59.8858C582.429 71.75 556.131 84.7319 530.112 98.4176C446.681 142.632 366.028 191.668 284.183 238.239C265.367 248.929 246.547 259.426 227.517 269.704C198.714 285.217 169.776 300.508 140.094 314.095C131.797 317.875 123.477 321.533 115.049 324.924C105.181 328.889 92.6842 333.532 79.2571 336.565C48.6896 343.432 14.5245 345.457 4.18717 345.75C1.8419 345.82 -0.0485171 346.036 0.000214581 346.296C-0.00607281 346.558 1.94619 346.764 4.29996 346.692C14.6363 346.395 48.8256 344.37 79.464 337.487C92.833 334.467 105.263 329.866 115.064 325.938C123.629 322.5 132.069 318.79 140.487 314.956C170.024 301.436 198.803 286.238 227.435 270.826C246.66 260.448 265.656 249.883 284.686 239.121C366.606 192.723 447.582 144.112 531.024 100.164C557.11 86.5272 583.454 73.5777 610.395 61.7235C641.78 48.0627 654.778 42.954 671.793 37.0366C675.822 35.6634 680.033 34.2638 684.798 32.7304C690.431 30.9184 696.054 29.1942 701.63 27.5593C746.769 13.8224 789.268 9.0162 809.387 8.04224C811.131 7.93457 812.711 7.84531 814.11 7.77066C816.881 7.62305 818.962 7.53033 820.246 7.47159ZM929.759 8.33237C938.674 9.34927 948.807 10.9382 959.503 13.2169C974.577 16.2864 990.58 20.9908 1005.42 27.6097C1010.92 30.024 1016.3 32.6257 1021.47 35.2931C1035.62 42.6045 1048.25 50.4212 1058.12 56.9991C1060.01 58.2595 1061.8 59.4694 1063.52 60.6426C1075.67 68.9857 1083.82 75.0386 1091.85 81.1336C1091.95 81.2084 1092.04 81.2834 1092.14 81.3582C1100.56 87.8335 1108.95 94.4132 1121.08 105.361C1122.08 106.265 1123.07 107.176 1124.1 108.146C1137.97 120.917 1155.3 140.738 1168.88 163.307C1168.9 163.325 1168.91 163.342 1168.92 163.36C1171.01 166.764 1173.04 170.217 1175.02 173.682C1186 192.941 1195.3 212.497 1198.51 228.3C1200.7 238.31 1200.46 248.065 1200.91 257.278C1202.45 289.38 1202.57 314.213 1202.59 332.516C1202.59 342.595 1201.69 350.673 1200.73 356.864C1199.37 366.217 1196.47 375.608 1194.84 385.345C1193.48 394.673 1190.04 403.701 1186.58 412.535C1183.25 421.33 1176.56 428.059 1171.64 435.602L1171.66 435.574C1167.75 442.292 1165.29 449.589 1162.43 456.687C1162.31 456.957 1161.94 457.203 1161.65 457.219C1161.03 457.254 1160.61 456.806 1160.47 456.548C1160.3 456.263 1160.25 456.028 1160.21 455.811C1160.14 455.374 1160.15 455.02 1160.19 454.667C1160.25 453.971 1160.41 453.346 1160.59 452.731C1160.96 451.52 1161.45 450.386 1161.97 449.284C1162.71 447.644 1162.42 447.773 1161.57 449.032C1161.15 449.675 1160.6 450.603 1160.07 451.848C1159.8 452.475 1159.54 453.171 1159.36 454.032C1159.28 454.465 1159.2 454.936 1159.22 455.545C1159.24 455.861 1159.27 456.198 1159.46 456.698C1159.56 456.936 1159.71 457.245 1160.05 457.575C1160.36 457.902 1161.02 458.248 1161.69 458.205C1162.31 458.172 1163.08 457.653 1163.33 457.087C1163.77 456.104 1164.2 455.063 1164.59 454.013C1164.69 453.756 1164.79 453.498 1164.89 453.241C1165.83 450.796 1166.62 448.664 1167.85 445.735C1169.58 441.665 1171.1 438.718 1172.61 436.129L1172.55 436.213C1172.62 436.115 1172.68 436.017 1172.75 435.92C1174.1 433.032 1182.16 425.664 1187.6 412.915C1190.77 404.699 1194.44 395.048 1195.78 385.497C1197.89 373.569 1201.13 362.387 1201.93 355.349C1202.76 349.6 1203.64 342.033 1203.77 332.536C1204.01 314.635 1204.32 289.84 1202.92 257.191C1202.52 248.056 1202.8 238.055 1200.51 227.681C1197.19 211.595 1187.18 192.478 1175.89 173.17C1173.98 169.89 1172.02 166.602 1170.01 163.333C1169.98 163.271 1169.94 163.21 1169.9 163.148C1156.41 140.66 1138.92 120.491 1124.77 107.474C1123.72 106.496 1122.73 105.577 1121.72 104.662C1109.07 93.2397 1100.26 86.3719 1091.68 79.804C1091.59 79.7354 1091.5 79.6668 1091.41 79.5982C1083.47 73.5974 1075.67 67.8395 1064.06 59.865C1062.35 58.6963 1060.56 57.489 1058.67 56.2276C1048.56 49.49 1035.75 41.5771 1021.45 34.2192C1016.41 31.6245 1011.16 29.0943 1005.8 26.7443C990.881 20.0881 974.783 15.3634 959.699 12.2924C949.121 10.0396 939.081 8.45483 930.236 7.43567C927.896 7.16174 925.887 7.17001 925.761 7.41922C925.633 7.66925 927.422 8.06171 929.759 8.33237ZM929.625 14.244C939.247 15.477 948.699 17.1807 958.212 19.3078C973.738 22.6678 988.445 27.2326 1002.74 33.6702C1022.55 42.5573 1041.58 53.8343 1059.72 66.1465C1079.55 79.7017 1098.59 94.6371 1116.46 110.41C1117.3 111.151 1118.12 111.886 1118.93 112.624C1132.7 125.238 1149.99 144.619 1163.63 166.871C1163.78 167.121 1163.94 167.371 1164.1 167.621C1165.99 170.659 1167.84 173.732 1169.65 176.815C1180.96 196 1190.43 215.099 1193.28 229.762C1195.26 238.953 1195.05 248.122 1195.47 257.51C1196.93 289.39 1196.89 314.136 1196.8 332.422C1196.74 342.404 1195.8 350.278 1194.84 356.341C1192.26 371.365 1190.08 377.879 1189.12 384.411C1188.91 385.734 1188.67 387.032 1188.38 388.405C1188.34 388.608 1188.3 388.809 1188.25 389.009C1188.25 389.023 1188.25 389.036 1188.24 389.049C1188.18 389.297 1188.12 389.508 1188.09 389.617C1188.04 389.838 1187.99 390.017 1187.98 390.084C1187.94 390.239 1187.91 390.371 1187.9 390.417C1187.85 390.609 1187.8 390.826 1187.77 390.966C1187.47 392.278 1186.4 396.327 1185.3 399.534C1184.19 402.825 1183.29 405.203 1182.36 407.784C1182.26 408.046 1182.17 408.307 1182.07 408.571C1181.84 409.211 1181.6 409.874 1181.36 410.576C1180.82 412.1 1180.08 413.818 1178.83 416.009C1177.78 417.844 1177.06 419.268 1177.43 419.191C1177.79 419.112 1179.09 417.543 1180.12 415.66C1181.11 413.827 1181.77 412.279 1182.25 410.912C1182.69 409.669 1183.09 408.578 1183.46 407.564C1183.55 407.305 1183.64 407.048 1183.74 406.791C1184.62 404.343 1185.4 402.243 1186.37 399.304C1187.79 395.057 1188.6 391.878 1189.24 388.936C1189.56 387.453 1189.82 386.031 1190.06 384.563C1191.04 377.727 1193.51 370.617 1196.04 354.9C1196.86 349.252 1197.69 341.848 1197.74 332.438C1197.83 314.56 1197.9 289.888 1196.42 257.47C1195.99 248.166 1196.21 238.925 1194.21 229.595C1191.31 214.72 1181.78 195.543 1170.47 176.338C1168.65 173.243 1166.79 170.159 1164.89 167.108C1164.73 166.85 1164.57 166.593 1164.41 166.335C1150.72 144.009 1133.37 124.572 1119.59 111.95C1118.78 111.193 1117.96 110.439 1117.13 109.68C1099.25 93.4683 1080.38 78.3352 1060.73 64.6792C1042.56 52.1484 1023.53 40.7756 1003.53 31.8894C989.133 25.4678 974.208 20.9732 958.525 17.8307C949.1 15.8741 939.687 14.3562 930.107 13.3485C920.573 12.2202 911.524 11.582 902.937 11.1469C899.5 10.974 896.136 10.8356 892.843 10.7235C859.685 9.69492 833.988 10.6734 809.747 12.1745C809.218 12.2087 808.69 12.2433 808.164 12.2784C802.75 12.6734 788.541 13.7305 768.291 17.1324C762.357 18.1359 755.866 19.3604 748.883 20.8524C735.394 23.7268 720.05 27.639 703.182 32.6562C698.641 34.005 693.992 35.4293 689.24 36.9373C684.55 38.4263 680.362 39.8005 676.387 41.1371C659.399 46.9704 645.963 51.549 614.374 65.2144C591.984 74.935 561.341 89.7286 533.315 104.548C512.763 115.375 493.518 126.038 479.466 133.914C462.852 143.24 453.524 148.628 446.926 152.436C445.092 153.496 443.478 154.432 441.996 155.293C438.131 157.536 435.127 159.282 431.186 161.555C402.805 177.934 382.89 189.348 350.229 208.007C348.179 209.178 346.509 210.377 346.486 210.691C346.465 211.005 348.098 210.316 350.146 209.146C382.857 190.459 403.072 178.871 431.836 162.271C435.952 159.899 439.163 158.031 443.1 155.747C444.56 154.9 446.119 153.997 447.857 152.992C454.345 149.248 463.574 143.918 480.097 134.645C494.103 126.795 513.277 116.173 533.753 105.387C561.737 90.5887 592.336 75.8162 614.657 66.1228C645.907 52.6011 659.065 48.1024 675.958 42.2826C679.922 40.9452 684.147 39.5545 688.862 38.053C693.839 36.4684 698.707 34.9749 703.458 33.5636C720.073 28.6217 735.204 24.7549 748.497 21.9052C755.45 20.4106 761.913 19.1827 767.813 18.1762C788.422 14.6983 801.754 13.7397 806.381 13.3716C807.527 13.2915 808.675 13.2137 809.831 13.1377C834.355 11.5841 860.633 10.6426 893.247 11.6845C896.401 11.7939 899.617 11.9276 902.89 12.0921C911.408 12.523 920.317 13.1532 929.625 14.244ZM232.416 275.308C234.533 274.163 236.176 273.029 236.21 272.713C236.223 272.408 234.589 273.054 232.498 274.186C221.508 280.131 213.603 284.31 207.38 287.575C195.899 293.585 190.278 296.454 181.921 300.744C168.618 307.554 155.437 314.03 142.715 319.84C134.771 323.467 127.03 326.87 119.476 329.955C105.73 335.597 92.5195 340.021 80.6201 342.638C64.3611 346.224 51.1252 347.757 42.3896 348.801C40.028 349.073 38.1373 349.485 38.1924 349.742C38.241 349.999 40.2154 350.003 42.5815 349.73C51.3031 348.685 64.521 347.156 80.827 343.559C92.6738 340.953 105.827 336.564 119.49 330.969C127.174 327.839 135.025 324.39 143.107 320.7C155.798 314.904 168.958 308.441 182.252 301.638C190.37 297.471 195.674 294.766 206.906 288.894C213.115 285.641 221.152 281.398 232.416 275.308Z" fill="#C8C5D0"/>
</svg>
