<svg width="1202" height="454" viewBox="0 0 1202 454" fill="none" xmlns="http://www.w3.org/2000/svg">
<path d="M36.9463 118.988C47.3302 120.245 59.7712 121.912 70.4284 124.327C72.5622 124.808 74.6245 125.321 76.5917 125.857C76.7566 125.902 76.9217 125.947 77.0872 125.993C81.8905 127.32 86.7315 128.878 92.541 131.017C93.2886 131.293 94.0322 131.572 94.8144 131.868C101.692 134.478 110.072 137.958 121.42 143.123C124.381 144.471 127.29 145.814 130.157 147.15C163.858 163 189.526 176.601 198.025 180.881C216.442 190.366 235.887 200.965 262.226 215.744C264.611 217.083 267.135 218.504 269.626 219.909C271.668 221.06 273.283 222.215 273.201 222.469C273.12 222.723 271.371 221.977 269.327 220.825C266.884 219.447 264.423 218.063 262.088 216.751C262.077 216.745 262.067 216.74 262.056 216.734C235.557 201.863 216.537 191.501 198.576 182.238C189.948 177.889 163.947 164.084 129.766 148.014C126.627 146.552 123.428 145.077 120.168 143.599C108.73 138.411 100.238 134.916 93.349 132.338C92.6049 132.059 91.851 131.781 91.1443 131.524C91.1276 131.518 91.111 131.512 91.0943 131.506C85.2562 129.389 80.6426 127.943 76.063 126.698C75.9659 126.672 75.8689 126.646 75.7721 126.62C73.9851 126.139 72.1307 125.681 70.2235 125.249C59.4494 122.799 47 121.156 36.7506 119.917C34.4414 119.636 32.6104 119.218 32.6617 118.961C32.7153 118.705 34.6324 118.707 36.9463 118.988ZM820.279 451.756C832.616 452.108 849.005 452.602 863.485 452.688C876.51 452.793 888.446 452.61 895.272 452.442C896.101 452.422 896.846 452.404 897.505 452.388C903.589 452.232 910.36 451.852 918.424 451.078C920.278 450.899 922.185 450.699 924.171 450.471C930.719 449.723 937.999 448.676 945.917 447.228C948.157 446.82 950.33 446.399 952.439 445.975C973.464 441.88 988.454 436.299 999.411 431.475C1001.68 430.477 1003.79 429.509 1005.77 428.577C1008.34 427.363 1010.7 426.194 1012.91 425.079C1012.91 425.077 1012.91 425.075 1012.92 425.073C1021.22 420.849 1027.25 417.417 1032.82 414.294C1042.22 408.982 1049.82 404.319 1058.64 398.67C1059.1 398.376 1059.56 398.079 1060.02 397.778C1073.05 389.448 1090.4 375.959 1101.1 366.497C1101.69 365.982 1102.3 365.451 1102.9 364.913C1106.76 361.506 1111.02 357.659 1115.99 352.995C1121.05 348.231 1126.8 342.589 1133.32 335.437C1144.1 323.619 1152.52 312.446 1159.41 302.25C1161.38 299.327 1163.21 296.509 1164.94 293.784C1167.03 290.477 1168.96 287.31 1170.78 284.253C1172.77 280.892 1174.58 277.754 1176.3 274.639C1196.39 241.21 1198.06 213.948 1198.09 199.375C1198.17 197.99 1198.25 196.634 1198.32 195.356C1199 183.602 1199.38 177.024 1199.67 172.284C1199.75 170.838 1199.83 169.596 1199.89 168.384C1200.42 157.759 1200.63 147.976 1200.73 136.234C1200.76 133.618 1200.77 130.921 1200.78 128.068C1200.78 126.857 1200.78 125.674 1200.78 124.521C1200.74 116.523 1200.07 110.335 1199.32 105.385C1198.94 102.899 1198.54 100.724 1198.12 98.6878C1198.11 98.6503 1198.11 98.6128 1198.1 98.5753C1198.04 98.2912 1197.98 98.0157 1197.92 97.7346C1197.88 97.5221 1197.83 97.3113 1197.79 97.1009C1197.77 97.0188 1197.75 96.9451 1197.74 96.8902C1197.73 96.8468 1197.72 96.813 1197.71 96.7913C1197.71 96.7872 1197.71 96.7831 1197.71 96.7791C1197.61 96.3851 1197.54 96.0473 1197.52 95.9748C1197.49 95.8516 1197.47 95.7426 1197.46 95.687C1197.39 95.3929 1197.31 95.0168 1197.26 94.7685C1197.12 94.1253 1196.87 93.002 1196.48 91.295C1196.12 89.8029 1195.76 88.3871 1195.3 86.6344C1195.27 86.5233 1195.24 86.4126 1195.21 86.3022C1194.76 84.596 1194.23 82.6103 1193.6 80.1711C1193.03 77.9453 1192.77 75.9018 1192.96 75.5556C1193.16 75.2134 1193.7 76.6776 1194.26 78.8745C1194.83 81.1534 1195.33 82.9993 1195.78 84.698C1195.81 84.8059 1195.84 84.9141 1195.87 85.0226C1196.34 86.7978 1196.78 88.5004 1197.23 90.3592C1197.38 90.9852 1197.53 91.6243 1197.67 92.2305C1197.93 93.3196 1198.21 94.5515 1198.54 96.0547C1198.61 96.3518 1198.68 96.6605 1198.74 96.9785C1199.18 99.0144 1199.65 101.404 1200.09 104.121C1200.94 109.486 1201.68 116.123 1201.73 124.505C1201.73 126.025 1201.73 127.551 1201.73 129.188C1201.72 131.894 1201.7 134.507 1201.68 137.087C1201.57 148.889 1201.34 159.406 1200.75 170.688C1200.67 172.255 1200.58 173.735 1200.48 175.315C1200.18 180.037 1199.84 185.648 1199.21 196.523C1199.15 197.475 1199.1 198.423 1199.04 199.416C1198.91 213.115 1197.78 240.686 1177.33 274.73C1175.54 277.982 1173.66 281.253 1171.59 284.733C1169.66 287.987 1167.62 291.332 1165.45 294.749C1163.75 297.424 1161.97 300.148 1160.11 302.901C1153.3 312.967 1145.11 323.826 1134.72 335.318C1127.83 342.921 1121.86 348.781 1116.63 353.708C1112.26 357.819 1108.43 361.292 1104.91 364.427C1104.65 364.664 1104.38 364.903 1104.11 365.139C1103.78 365.432 1103.45 365.723 1103.12 366.012C1091.83 376.055 1073.59 390.308 1059.19 399.473C1059.06 399.557 1058.93 399.639 1058.8 399.721C1049.75 405.489 1042.17 410.133 1032.3 415.682C1027.43 418.389 1022.27 421.349 1014.12 425.526C1011.83 426.694 1009.29 427.953 1006.45 429.298C1004.39 430.276 1002.18 431.294 999.79 432.341C988.721 437.217 973.599 442.819 952.634 446.902C950.347 447.362 947.984 447.818 945.541 448.259C937.849 449.65 930.862 450.656 924.331 451.405C922.301 451.638 920.318 451.846 918.364 452.034C910.239 452.813 902.681 453.248 895.628 453.402C895.527 453.405 895.424 453.407 895.319 453.409C889.399 453.545 876.793 453.758 862.831 453.631C848.533 453.531 833.358 453.064 822.498 452.793C821.37 452.766 820.229 452.736 819.092 452.703C812.877 452.524 806.582 452.25 800.751 451.969C797.388 451.807 794.18 451.645 791.227 451.509C765.824 451.258 726.281 443.716 691.701 432.731C676.784 428.151 662.59 423.216 650.407 418.723C649.874 418.527 649.339 418.329 648.803 418.131C602.12 400.69 569.738 384.576 558.609 379.361C558.094 379.113 557.623 378.887 557.2 378.682C556.822 378.5 556.479 378.335 556.177 378.189C551.667 376.006 547.661 374.076 543.499 372.048C543.271 371.937 543.042 371.825 542.813 371.714C538.398 369.559 533.792 367.284 528.361 364.508C525.523 363.058 522.815 361.664 520.1 360.26C503.731 351.783 490.006 344.437 477.956 337.932C475.347 336.523 472.841 335.164 470.383 333.827C470.375 333.823 470.368 333.819 470.361 333.815C459.58 327.955 450.05 322.706 441.033 317.673C424.599 308.493 413.51 302.275 404.879 297.456C402.173 295.944 399.678 294.55 397.325 293.235C392.236 290.39 387.801 287.905 383.23 285.31C374.644 280.437 366.726 275.978 358.929 271.581C358.235 271.189 357.541 270.797 356.849 270.407C348.396 265.638 340.04 260.912 331.242 255.864C329.189 254.686 327.599 253.529 327.686 253.278C327.775 253.028 329.504 253.776 331.559 254.955C340.1 259.856 348.255 264.468 356.705 269.236C357.4 269.629 358.1 270.022 358.801 270.418C366.581 274.806 374.637 279.345 383.382 284.309C387.79 286.811 391.977 289.158 396.966 291.948C399.345 293.278 401.909 294.71 404.761 296.304C413.52 301.195 424.754 307.496 441.343 316.763C450.25 321.734 459.654 326.916 470.425 332.773C472.902 334.12 475.423 335.487 478.066 336.915C490.183 343.458 504.016 350.865 520.535 359.419C523.211 360.804 525.883 362.179 528.675 363.606C533.806 366.229 538.178 368.392 542.553 370.53C542.801 370.652 543.049 370.773 543.297 370.894C547.432 372.911 551.647 374.945 556.405 377.248C557.045 377.558 557.86 377.952 558.836 378.422C569.972 383.641 602.459 399.816 649.263 417.293C649.409 417.347 649.555 417.402 649.702 417.456C667.478 424.021 681.115 428.39 692.018 431.68C700.397 434.2 707.18 436.058 713.179 437.561C724.088 440.288 732.294 442.144 739.048 443.591C740.331 443.865 741.563 444.123 742.72 444.361C747.748 445.396 751.741 446.148 755.747 446.805C767.869 448.764 776.642 449.643 787.26 450.237C791.466 450.465 796.105 450.73 800.837 450.971C806.23 451.247 811.745 451.489 816.872 451.655C816.886 451.655 816.901 451.656 816.915 451.656C818.058 451.693 819.181 451.727 820.279 451.756ZM1183.91 47.1303C1183.34 45.6784 1182.96 44.4076 1182.84 43.6945C1182.75 43.2619 1182.74 43.0037 1182.82 42.9786C1182.9 42.9558 1183.07 43.1529 1183.28 43.5269C1183.67 44.1526 1184.24 45.385 1184.82 46.8664C1186.86 52.0792 1188.95 57.7206 1190.38 63.5307C1190.99 65.9689 1191.16 67.9877 1190.9 68.0174C1190.63 68.0396 1190.04 66.0847 1189.44 63.6731C1188.02 57.9231 1185.95 52.3422 1183.91 47.1303ZM810.757 446.449C813.047 446.558 815.315 446.866 815.819 447.153C816.321 447.439 814.867 447.603 812.576 447.503C811.364 447.449 809.37 447.363 806.689 447.226C805.094 447.144 803.252 447.044 801.186 446.918C780.852 445.947 738.333 441.152 693.257 427.571C687.579 425.922 681.852 424.182 676.116 422.352C671.391 420.844 667.217 419.469 663.201 418.112C646.145 412.236 632.198 408.037 600.504 394.328C573.85 382.678 547.807 369.936 522.04 356.51C438.641 312.727 357.982 264.145 276.147 218.018C257.191 207.348 238.252 196.886 219.077 186.632C190.417 171.35 161.606 156.279 132.081 142.892C123.686 139.105 115.272 135.441 106.745 132.05C96.9484 128.159 84.5582 123.615 71.2492 120.636C40.7021 113.835 6.50528 111.822 -3.82628 111.534C-6.16403 111.464 -8.04831 111.248 -7.99979 110.988C-8.00596 110.726 -6.06022 110.521 -3.7141 110.591C6.61614 110.884 40.8374 112.898 71.4542 119.714C84.704 122.68 97.0277 127.183 106.758 131.037C115.421 134.474 123.955 138.189 132.47 142.03C161.859 155.354 190.479 170.316 218.994 185.513C238.345 195.855 257.483 206.396 276.648 217.132C358.557 263.086 439.538 311.241 522.947 354.759C548.782 368.138 574.86 380.843 601.516 392.487C632.832 406.022 645.779 411.089 662.774 416.966C666.782 418.324 670.988 419.715 675.744 421.238C681.7 423.144 687.644 424.952 693.531 426.66C739.182 440.416 781.945 445.032 801.27 445.947C802.487 446.021 803.613 446.086 804.642 446.142C807.403 446.293 809.478 446.389 810.757 446.449ZM919.932 445.88C929.307 444.87 940.046 443.25 951.365 440.859C966.499 437.81 982.494 433.14 997.278 426.608C1002.19 424.476 1006.99 422.2 1011.62 419.866C1025.8 412.718 1038.45 405.036 1048.35 398.566C1050.84 396.935 1053.18 395.381 1055.37 393.895C1066.67 386.232 1074.48 380.538 1082.17 374.793C1082.26 374.72 1082.36 374.646 1082.46 374.572C1091.23 367.934 1099.97 361.201 1112.92 349.611C1113.46 349.127 1114 348.635 1114.54 348.137C1128.5 335.552 1146.04 316.033 1159.8 293.663C1159.81 293.645 1159.82 293.628 1159.83 293.611C1162.24 289.765 1164.57 285.85 1166.83 281.926C1177.55 263.291 1186.64 244.433 1190.04 229.178C1192.52 218.786 1192.27 208.68 1192.74 199.144C1194.28 167.304 1194.4 142.711 1194.42 124.625C1194.42 114.916 1193.58 107.111 1192.66 101.073C1191.31 91.6308 1188.34 82.1344 1186.67 72.3002C1185.3 63.0514 1181.87 54.1124 1178.41 45.3689C1175.06 36.6409 1168.38 29.9902 1163.47 22.5194L1163.48 22.5477C1159.59 15.8996 1157.12 8.66828 1154.26 1.63462C1154.14 1.36668 1153.77 1.1209 1153.48 1.10506C1152.87 1.07002 1152.45 1.50849 1152.3 1.76708C1152.14 2.05054 1152.08 2.28644 1152.04 2.50241C1151.97 2.93834 1151.98 3.29131 1152.01 3.64178C1152.08 4.33377 1152.24 4.95337 1152.42 5.56306C1152.79 6.76421 1153.28 7.88673 1153.8 8.97788C1154.54 10.6063 1154.26 10.4832 1153.41 9.23933C1152.99 8.60384 1152.43 7.68568 1151.9 6.45043C1151.64 5.82854 1151.38 5.13739 1151.19 4.28099C1151.11 3.8496 1151.03 3.38064 1151.05 2.77101C1151.07 2.45451 1151.1 2.11584 1151.3 1.6148C1151.4 1.37633 1151.55 1.06613 1151.89 0.739062C1152.21 0.41416 1152.86 0.0783749 1153.52 0.119998C1154.13 0.153266 1154.91 0.669486 1155.16 1.23224C1155.6 2.2228 1156.04 3.2717 1156.44 4.331C1156.54 4.58782 1156.64 4.84343 1156.74 5.09956C1157.69 7.53388 1158.48 9.65458 1159.71 12.5683C1161.43 16.5508 1162.94 19.4489 1164.43 21.9892L1164.38 21.9056C1164.47 22.0437 1164.56 22.1809 1164.66 22.3172C1166.01 25.167 1174 32.3941 1179.43 44.9847C1182.58 53.1043 1186.26 62.6578 1187.61 72.1459C1189.77 84.1754 1193.07 95.4928 1193.85 102.586C1194.64 108.18 1195.47 115.472 1195.6 124.606C1195.83 142.285 1196.14 166.84 1194.75 199.23C1194.33 208.676 1194.63 219.069 1192.03 229.83C1188.52 245.351 1178.76 263.795 1167.72 282.452C1165.51 286.185 1163.25 289.932 1160.92 293.65C1160.89 293.71 1160.85 293.771 1160.81 293.832C1147.15 316.128 1129.44 335.991 1115.2 348.817C1114.65 349.322 1114.1 349.82 1113.56 350.312C1100.08 362.373 1090.91 369.398 1081.99 376.119C1081.9 376.187 1081.81 376.254 1081.72 376.322C1074.14 381.965 1066.66 387.378 1055.91 394.676C1053.72 396.155 1051.39 397.707 1048.89 399.343C1038.75 405.97 1025.92 413.746 1011.59 420.939C1007.08 423.202 1002.42 425.406 997.658 427.475C982.791 434.044 966.702 438.733 951.56 441.784C940.354 444.15 929.717 445.766 920.404 446.78C918.072 447.038 916.062 447.018 915.941 446.768C915.814 446.518 917.599 446.136 919.932 445.88ZM919.834 439.968C930.021 438.727 940.024 436.976 950.082 434.747C965.602 431.423 980.311 426.906 994.614 420.529C1014.42 411.737 1033.44 400.574 1051.6 388.377C1071.42 374.965 1090.46 360.18 1108.34 344.556C1108.71 344.237 1109.07 343.918 1109.43 343.599C1123.28 331.167 1140.78 312.083 1154.57 290.052C1154.73 289.804 1154.89 289.557 1155.04 289.31C1157.25 285.836 1159.4 282.315 1161.5 278.783C1172.54 260.222 1181.78 241.823 1184.84 227.629C1187.09 218.076 1186.86 208.649 1187.3 198.909C1188.76 167.293 1188.72 142.788 1188.63 124.72C1188.57 115.107 1187.68 107.483 1186.77 101.592C1184.16 86.2952 1181.93 79.8908 1180.95 73.2428C1180.76 72.052 1180.54 70.8746 1180.28 69.6365C1180.24 69.4368 1180.2 69.238 1180.16 69.0361C1180.15 69.023 1180.15 69.0099 1180.15 68.9968C1180.08 68.747 1180.03 68.539 1180 68.432C1179.94 68.2123 1179.9 68.0311 1179.88 67.9642C1179.85 67.8088 1179.82 67.6791 1179.8 67.633C1179.76 67.4462 1179.71 67.2258 1179.67 67.0865C1179.38 65.7853 1178.32 61.7435 1177.22 58.5567C1176.12 55.2835 1175.22 52.9205 1174.29 50.3556C1174.19 50.0959 1174.09 49.8346 1174 49.5737C1173.74 48.8641 1173.47 48.1301 1173.19 47.3417C1172.68 45.8767 1171.96 44.2236 1170.77 42.1394C1169.72 40.3169 1169 38.9004 1169.37 38.9757C1169.74 39.0531 1171.04 40.6112 1172.05 42.4837C1172.99 44.2165 1173.63 45.6937 1174.09 47.0033C1174.56 48.3383 1174.99 49.4966 1175.38 50.5695C1175.48 50.8262 1175.57 51.0815 1175.67 51.3378C1176.56 53.7693 1177.33 55.8575 1178.3 58.7853C1179.71 63.0112 1180.51 66.1751 1181.14 69.1127C1181.43 70.461 1181.67 71.7596 1181.89 73.0888C1182.89 80.0252 1185.42 87.0365 1187.96 103.029C1188.74 108.503 1189.52 115.662 1189.57 124.704C1189.66 142.361 1189.73 166.793 1188.24 198.95C1187.8 208.598 1188.04 218.115 1185.77 227.813C1182.66 242.209 1173.36 260.681 1162.31 279.263C1160.21 282.808 1158.05 286.343 1155.83 289.829C1155.67 290.085 1155.51 290.34 1155.35 290.595C1141.51 312.702 1123.94 331.84 1110.08 344.28C1109.72 344.61 1109.36 344.94 1108.99 345.271C1091.1 361.336 1072.23 376.321 1052.6 389.837C1034.42 402.258 1015.38 413.522 995.398 422.318C980.996 428.685 966.071 433.137 950.398 436.251C940.429 438.305 930.456 439.865 920.31 440.866C911.38 441.866 902.9 442.452 894.807 442.858C890.823 443.057 886.93 443.21 883.135 443.33C850.664 444.26 825.402 443.295 801.626 441.82C800.655 441.757 799.687 441.693 798.723 441.627C793.325 441.227 779.169 440.147 758.984 436.733C753.068 435.727 746.597 434.5 739.637 433.011C726.458 430.197 711.494 426.401 695.069 421.562C690.222 420.137 685.251 418.625 680.166 417.02C675.501 415.546 671.294 414.173 667.347 412.853C650.412 407.07 637.003 402.525 605.484 388.986C583.312 379.426 553.02 364.928 525.22 350.367C504.453 339.53 484.956 328.824 470.777 320.947C454.176 311.711 444.859 306.378 438.269 302.608C436.436 301.558 434.823 300.631 433.342 299.779C429.484 297.56 426.478 295.828 422.543 293.58C394.188 277.365 374.293 266.069 341.658 247.603C339.612 246.445 337.944 245.257 337.921 244.943C337.898 244.63 339.528 245.308 341.573 246.465C374.257 264.959 394.452 276.427 423.19 292.861C427.3 295.208 430.513 297.06 434.442 299.319C435.901 300.158 437.459 301.053 439.196 302.048C445.677 305.754 454.895 311.03 471.404 320.213C485.538 328.065 504.964 338.73 525.654 349.527C553.413 364.067 583.662 378.544 605.765 388.077C636.944 401.473 650.075 405.939 666.916 411.708C670.882 413.039 675.085 414.415 679.785 415.904C685.097 417.587 690.287 419.167 695.342 420.654C711.517 425.419 726.267 429.169 739.251 431.958C746.194 433.453 752.634 434.681 758.507 435.689C779.056 439.18 792.336 440.159 796.947 440.532C798.529 440.645 800.112 440.753 801.709 440.858C825.775 442.384 851.599 443.313 883.54 442.37C887.202 442.252 890.945 442.103 894.761 441.913C902.776 441.511 911.123 440.934 919.834 439.968ZM223.945 181.004C226.053 182.133 227.71 183.265 227.74 183.578C227.75 183.88 226.137 183.254 224.029 182.124C213.064 176.253 205.147 172.108 198.937 168.883C187.477 162.945 181.863 160.108 173.506 155.862C160.346 149.193 147.28 142.838 134.681 137.138C126.629 133.496 118.801 130.089 111.144 126.999C97.5095 121.466 84.4084 117.133 72.6002 114.56C56.2811 110.995 43.0025 109.476 34.2518 108.442C31.8994 108.174 30.0127 107.764 30.0681 107.507C30.1156 107.25 32.0854 107.243 34.4422 107.512C43.1787 108.547 56.4391 110.063 72.8053 113.638C84.5602 116.2 97.6041 120.499 111.157 125.986C118.932 129.116 126.883 132.574 135.07 136.277C147.639 141.963 160.683 148.305 173.833 154.967C181.961 159.097 187.228 161.755 198.463 167.568C204.658 170.782 212.708 174.989 223.945 181.004Z" fill="#C8C5D0"/>
</svg>
